<?xml version="1.0" encoding="utf-8"?>
<!-- Generator: Adobe Illustrator 26.0.0, SVG Export Plug-In . SVG Version: 6.00 Build 0)  -->
<svg version="1.1" id="Capa_1" xmlns="http://www.w3.org/2000/svg" xmlns:xlink="http://www.w3.org/1999/xlink" x="0px" y="0px"
	 viewBox="0 0 519.3 426.9" style="enable-background:new 0 0 519.3 426.9;" xml:space="preserve">
<style type="text/css">
	.st0{filter:url(#Adobe_OpacityMaskFilter);}
	.st1{fill:#FFFFFF;}
	.st2{mask:url(#SVGID_1_);}
	.st3{fill:none;}
</style>
<defs>
	<filter id="Adobe_OpacityMaskFilter" filterUnits="userSpaceOnUse" x="0" y="0" width="519.2" height="426.9">
		
			<feColorMatrix  type="matrix" values="-1 0 0 0 1  0 -1 0 0 1  0 0 -1 0 1  0 0 0 1 0" color-interpolation-filters="sRGB" result="source"/>
		<feFlood  style="flood-color:white;flood-opacity:1" result="back"/>
		<feBlend  in="source" in2="back" mode="normal"/>
	</filter>
</defs>
<mask maskUnits="userSpaceOnUse" x="0" y="0" width="519.2" height="426.9" id="SVGID_1_">
	<g class="st0">
		<path class="st1" d="M268,173.5l-9.8,9.8L177.5,264l-80.7-80.7l-9.8-9.8c-27.9-22.3-29.6-63.8-6.2-87
			c23.3-23.2,64.7-21.5,86.9,6.4l9.8,9.8l9.8-9.8c22.3-27.9,63.8-29.6,87-6.3C297.5,109.8,295.8,151.2,268,173.5z"/>
	</g>
</mask>
<g class="st2">
	<path class="st3" d="M397.4,61.9h-30.5v123.8h30.5c33.6,0,61-27.8,61-61.9S431,61.9,397.4,61.9z"/>
	<path class="st1" d="M397.4,0H31.6C14.6,0.1,1,13.9,1.1,30.9l0,0v216.7c0,51.3,41,92.9,91.4,92.9h182.9c50.5,0,91.4-41.6,91.4-92.9
		h30.5c67.4,0,121.9-55.4,121.9-123.8S464.7,0,397.4,0z M397.4,185.7h-30.5V61.9h30.5c33.6,0,61,27.8,61,61.9S431,185.7,397.4,185.7
		z"/>
	<path class="st1" d="M0,395.9c0,17.1,9.8,31,21.9,31h350.8c12.1,0,21.9-13.8,21.9-31s-9.8-30.9-21.9-30.9H21.9
		C9.8,365,0,378.8,0,395.9z"/>
</g>
</svg>
